# xmcd
#
# Track frame offsets:
#	150
#	19054
#	31540
#	42902
#	57544
#	71312
#	87532
#	102914
#	120628
#	138618
#	152103
#	165687
#	180917
#	192130
#	208438
#
# Disc length: 2934 seconds
#
# Revision: 0
# Processed by: cddbd v1.5.2PL0 Copyright (c) Steve Scherf et al.
# Submitted via: audiograbber 1.83.01
#
DISCID=cc0b740f
DTITLE=Various Artist - Classic Country Duets - CD 1
DYEAR=2004
DGENRE=Country
TTITLE0=Kenny Rogers with Dolly Parton - Islands In The Stream
TTITLE1=Johnny Cash with June Carter - Jackson
TTITLE2=Loretta Lynn with Conway Twitty - Lousianna Woman, Mississippi Man
TTITLE3=Chalie Rich with Janie Frickie - On My Knees
TTITLE4=George Jones with Tammy Wynette - Golden Ring
TTITLE5=Earl Thomas Conley with Emmylou Harris - We Believe In Happy Endings
TTITLE6=David Frizzell with Shelly West - You're The Reason God Made Oklahoma
TTITLE7=Marie Osmond with Dan Seals - Meet Me In Montana
TTITLE8=Eddie Rabbit with Crystal Gayle - You and I
TTITLE9=Charly McClain with Mickey Gilley - Paradise Tonight
TTITLE10=Dottie West with Kenny Rogers - What Are We Doin' In Love
TTITLE11=Hoyt Axton with Linda Ronstadt - Lion In The Winter
TTITLE12=Porter Wagoner with Dolly Parton - Holding On To Nothing
TTITLE13=Merle Haggerd with Janie Frickie - A Place To Fall Apart
TTITLE14=Glen Campbell with Bobbie Gentry - All I Have To Do Is Dream
EXTD=
EXTT0=
EXTT1=
EXTT2=
EXTT3=
EXTT4=
EXTT5=
EXTT6=
EXTT7=
EXTT8=
EXTT9=
EXTT10=
EXTT11=
EXTT12=
EXTT13=
EXTT14=
PLAYORDER=
